{"title":"Exquisite Corpse (2010)DVD.R5.RIP.DIVX-WDR","uid":7073115,"size":826233976,"categoryP":"video","categoryS":"movies","magnet":"?xt=urn:btih:15dc9d1c65f01946db9f22a6d1ab585626178420&amp;dn=Exquisite+Corpse+%282010%29DVD.R5.RIP.DIVX-WDR&amp;tr=udp%3A%2F%2Ftracker.openbittorrent.com%3A80&amp;tr=udp%3A%2F%2Fopen.demonii.com%3A1337&amp;tr=udp%3A%2F%2Ftracker.coppersurfer.tk%3A6969&amp;tr=udp%3A%2F%2Fexodus.desync.com%3A6969","seeders":0,"leechers":1,"uploader":"TvTeam","files":4,"time":1330742738,"description":". \n &lt;a href=&quot;\nhttp://www.torrenting.com&quot; rel=&quot;nofollow&quot; target=&quot;_NEW&quot;&gt;\nhttp://www.torrenting.com&lt;/a&gt;          :     Once &amp; For all ;)\n\n\n               www . Torrenting . Com \n\n(((((((((((((= Enjoy No RAR releases =))))))))))))))))))))\n\n\n...................................NFO:....................................\n\n.   Video\n      Format : MPEG-4 Visual\n      Format profile : Simple@L1\n      Format settings, BVOP : No\n      Format settings, QPel : No\n      Format settings, GMC : No warppoints\n      Format settings, Matrix : Default\n      Codec ID : DX50\n      Codec ID/Hint : DivX 5\n      Duration : 1h 37mn\n      Bit rate : 987 Kbps\n      Width : 720 pixels\n      Height : 404 pixels\n      Display aspect ratio : 16/9\n      Frame rate : 25.000 fps\n      Resolution : 24 bits\n      Colorimetry : 4:2:0\n      Scan type : Progressive\n      Bits/(Pixel*Frame) : 0.136\n      Stream size : 690 MiB (88%)\n      Writing library : DigiArty AV Encoder Core\n   Audio\n      Format : MPEG Audio\n      Format version : Version 1\n      Format profile : Layer 3\n      Codec ID : 55\n      Codec ID/Hint : MP3\n      Duration : 1h 37mn\n      Bit rate mode : Constant\n      Bit rate : 128 Kbps\n      Channel(s) : 2 channels\n      Sampling rate : 48.0 KHz\n      Resolution : 16 bits\n      Stream size : 89.4 MiB (11%)\n      Alignment : Aligned on interleaves\n      Interleave, duration : 24 ms (0.60 video frame)\n      Interleave, preload duration : 504 ms","torrent":{"xt":"urn:btih:15dc9d1c65f01946db9f22a6d1ab585626178420","amp;dn":"Exquisite+Corpse+%282010%29DVD.R5.RIP.DIVX-WDR","amp;tr":["udp%3A%2F%2Ftracker.openbittorrent.com%3A80","udp%3A%2F%2Fopen.demonii.com%3A1337","udp%3A%2F%2Ftracker.coppersurfer.tk%3A6969","udp%3A%2F%2Fexodus.desync.com%3A6969"],"infoHash":"15dc9d1c65f01946db9f22a6d1ab585626178420","infoHashBuffer":{"type":"Buffer","data":[21,220,157,28,101,240,25,70,219,159,34,166,209,171,88,86,38,23,132,32]},"announce":[],"urlList":[]}}